Coordinates
version=1
nRows=16
nColumns=40
inDegrees=yes

Units are S.I. units (second, meters, Newtons, ...)
Angles are in degrees.

endheader
time	pelvis_tilt	pelvis_list	pelvis_rotation	pelvis_tx	pelvis_ty	pelvis_tz	hip_flexion_r	hip_adduction_r	hip_rotation_r	knee_angle_r	knee_angle_r_beta	ankle_angle_r	subtalar_angle_r	mtp_angle_r	hip_flexion_l	hip_adduction_l	hip_rotation_l	knee_angle_l	knee_angle_l_beta	ankle_angle_l	subtalar_angle_l	mtp_angle_l	lumbar_extension	lumbar_bending	lumbar_rotation	arm_flex_r	arm_add_r	arm_rot_r	elbow_flex_r	pro_sup_r	wrist_flex_r	wrist_dev_r	arm_flex_l	arm_add_l	arm_rot_l	elbow_flex_l	pro_sup_l	wrist_flex_l	wrist_dev_l
      0.95000000	      1.22707833	     -3.68213808	      0.26798312	     -0.52315163	      0.89219922	      1.45197821	     -6.70778743	      4.40218591	    -16.14784678	    -20.38635936	     -0.35580909	     12.75301961	      7.27450664	     -6.76961896	     24.00257017	      4.69387764	     14.00873951	    -12.24515805	     -0.21371833	     -4.87594264	     -5.74949668	     -9.35301560	    -10.49516772	      5.23059129	      8.20094461	     16.71469438	    -13.82419316	     17.70631864	     22.32840702	     89.95437384	      0.00000000	      0.00000000	     -3.55768969	      6.88111443	    -12.84694236	     20.91900132	     89.95437384	      0.00000000	      0.00000000
      0.96000000	      1.05861036	     -3.71855619	      0.18116206	     -0.51585778	      0.89113243	      1.45163338	     -6.85281613	      4.35748410	    -16.00574728	    -20.73285227	     -0.36185654	     12.56623435	      7.09643538	     -6.68314999	     24.30751271	      4.71900992	     14.03675445	    -12.33357412	     -0.21526148	     -4.74164777	     -5.52875051	     -9.19913010	    -10.35955719	      5.18068969	      8.10105735	     16.71846571	    -13.62809999	     17.69887975	     22.66366838	     89.95437384	      0.00000000	      0.00000000	     -3.58265131	      6.90558805	    -12.78516779	     21.02616395	     89.95437384	      0.00000000	      0.00000000
      0.97000000	      0.97053830	     -3.82916007	     -0.09943884	     -0.50813219	      0.89030009	      1.45113953	     -7.14132860	      4.31539206	    -15.78305046	    -21.03286659	     -0.36709277	     12.56209228	      7.05215443	     -6.67406844	     24.23637299	      4.84679721	     14.33041943	    -12.24948811	     -0.21379390	     -4.31913996	     -5.21754656	     -9.11244056	    -10.25938137	      5.27864006	      8.22644630	     16.79561155	    -13.47847183	     17.81633802	     22.60745805	     89.95437384	      0.00000000	      0.00000000	     -3.54797008	      6.76510165	    -12.72661220	     20.87659338	     89.95437384	      0.00000000	      0.00000000
      0.98000000	      1.05075621	     -3.79375908	     -0.58297367	     -0.50029538	      0.88979492	      1.45093564	     -7.54625566	      4.09788720	    -15.14800885	    -21.46444718	     -0.37462528	     12.51634264	      7.08150272	     -6.68264906	     23.96128051	      4.88656178	     14.47374886	    -12.62566627	     -0.22035945	     -3.80642390	     -4.71980158	     -9.02487214	    -10.35722957	      5.15074704	      8.50997260	     16.95017070	    -13.25753110	     18.08264668	     22.41671717	     89.95437384	      0.00000000	      0.00000000	     -3.40771386	      6.62574832	    -12.94075420	     20.46246426	     89.95437384	      0.00000000	      0.00000000
      0.99000000	      1.02041234	     -3.68607503	     -0.96184307	     -0.49198900	      0.88912579	      1.45044499	     -7.90682564	      3.79477287	    -14.69067877	    -21.80081636	     -0.38049603	     12.36658943	      7.00954797	     -6.64298505	     23.75187954	      4.78962012	     14.44769607	    -13.14819521	     -0.22947930	     -3.31516067	     -4.24342532	     -8.91149418	    -10.27618749	      4.95763408	      8.73460647	     16.84564943	    -13.11238670	     18.29879653	     22.45598148	     89.95437384	      0.00000000	      0.00000000	     -3.34294483	      6.56613340	    -13.08535318	     20.31482022	     89.95437384	      0.00000000	      0.00000000
      1.00000000	      0.79950031	     -3.65216610	     -1.14866691	     -0.48373470	      0.88816475	      1.44972301	     -7.97835192	      3.59423700	    -14.40071809	    -22.28168188	     -0.38888871	     12.02331707	      6.77666454	     -6.50872269	     23.72366549	      4.66755002	     14.14571451	    -13.71584113	     -0.23938659	     -3.29902876	     -4.02022325	     -8.71355714	     -9.98810358	      4.87466736	      8.70644004	     16.58490791	    -12.96697960	     18.28748806	     22.79502376	     89.95437384	      0.00000000	      0.00000000	     -3.49113910	      6.60902316	    -13.03147893	     20.58692620	     89.95437384	      0.00000000	      0.00000000
      1.01000000	      0.92099219	     -3.55345646	     -1.67168627	     -0.47494658	      0.88782098	      1.44927685	     -8.53627060	      3.25162812	    -13.78727828	    -22.57805749	     -0.39406144	     11.77379545	      6.85834204	     -6.49293080	     23.20026995	      4.57894748	     14.10051635	    -14.55771895	     -0.25408013	     -2.39559301	     -3.28949514	     -8.63884127	    -10.00664687	      4.70208542	      9.04730412	     16.63330818	    -12.73755828	     18.65320011	     22.28041168	     89.95437384	      0.00000000	      0.00000000	     -3.32869716	      6.50394349	    -13.28991200	     20.15001446	     89.95437384	      0.00000000	      0.00000000
      1.02000000	      0.87984159	     -3.45506037	     -2.07311166	     -0.46591126	      0.88727863	      1.44867654	     -8.90621739	      2.92183253	    -13.31248004	    -22.89379318	     -0.39957207	     11.43173454	      6.84316927	     -6.44379895	     22.71080639	      4.38036383	     13.88996114	    -15.08561008	     -0.26329357	     -2.01764073	     -2.63065469	     -8.46097901	     -9.82626131	      4.53546173	      9.27572084	     16.41641614	    -12.58197109	     18.91841338	     22.14264872	     89.95437384	      0.00000000	      0.00000000	     -3.29851218	      6.49273205	    -13.44375744	     20.02924793	     89.95437384	      0.00000000	      0.00000000
      1.03000000	      0.64532223	     -3.43217413	     -2.18416961	     -0.45698321	      0.88645638	      1.44774661	     -8.98411074	      2.73527120	    -13.01675059	    -23.38803043	     -0.40819814	     11.06209973	      6.62697492	     -6.31346146	     22.66586273	      4.21131392	     13.63490871	    -15.51788898	     -0.27083826	     -2.30137839	     -2.41555098	     -8.22702112	     -9.45476283	      4.47497877	      9.17421519	     16.01008209	    -12.45471074	     18.90531595	     22.42409864	     89.95437384	      0.00000000	      0.00000000	     -3.47480038	      6.56781851	    -13.38692136	     20.29453068	     89.95437384	      0.00000000	      0.00000000
      1.04000000	      0.91894869	     -2.63080246	     -2.75408983	     -0.44805035	      0.88719147	      1.44677390	     -9.50290033	      1.50409804	    -12.46001246	    -23.93153271	     -0.41768404	     10.35429415	      6.63517652	     -6.38789140	     21.30040186	      3.14049714	     13.53303428	    -14.11157363	     -0.24629342	     -4.84640623	     -0.67510884	     -7.85022140	     -9.66260624	      3.51988081	      9.49270746	     15.95367243	    -12.24448919	     19.41182833	     21.97272817	     89.95437384	      0.00000000	      0.00000000	     -3.22608862	      6.62595946	    -13.94377999	     20.00774178	     89.95437384	      0.00000000	      0.00000000
      1.05000000	      0.70202855	     -2.57072922	     -2.78748482	     -0.43910289	      0.88692216	      1.44585788	     -9.55464688	      1.32195266	    -12.17402784	    -24.44165555	     -0.42658736	      9.98865717	      6.43369116	     -6.25941378	     21.34774697	      3.06212262	     13.20252993	    -14.50466323	     -0.25315413	     -4.98704258	     -0.63835842	     -7.67862879	     -9.32525218	      3.39138673	      9.35647117	     15.49463069	    -12.10221522	     19.38561400	     22.17211888	     89.95437384	      0.00000000	      0.00000000	     -3.28159757	      6.72940980	    -13.87267226	     20.23808949	     89.95437384	      0.00000000	      0.00000000
      1.06000000	      0.49787538	     -2.18722428	     -2.96924339	     -0.43012420	      0.88713755	      1.44471639	     -9.43246623	      0.70424032	    -11.74761097	    -25.19452250	     -0.43972737	      8.93587637	      6.32487491	     -6.12829001	     20.91639417	      2.53381384	     12.81942633	    -14.07766885	     -0.24570167	     -6.57520645	     -0.48189931	     -7.50727293	     -8.89900611	      2.96782863	      9.26756241	     15.51956876	    -11.66576002	     19.56533673	     21.06352595	     89.95437384	      0.00000000	      0.00000000	     -2.93004440	      6.64991770	    -14.17020149	     19.40262661	     89.95437384	      0.00000000	      0.00000000
      1.07000000	      0.37837784	     -1.70838725	     -3.21236171	     -0.42073535	      0.88747970	      1.44353467	     -9.24524103	     -0.17474170	    -11.78741009	    -26.28516214	     -0.45876262	      7.78110252	      5.91480787	     -5.90878556	     20.44788882	      1.96097610	     13.09062186	    -14.07679040	     -0.24568634	     -6.60511260	     -0.04734756	     -7.50643995	     -8.58160602	      2.41586287	      9.24452652	     15.13823814	    -11.43309429	     19.53104123	     20.81324406	     89.95437384	      0.00000000	      0.00000000	     -2.87490366	      6.74632944	    -14.38344138	     19.30988941	     89.95437384	      0.00000000	      0.00000000
      1.08000000	      0.24543465	     -1.35844393	     -3.20258021	     -0.41158635	      0.88805047	      1.44216130	     -9.05684475	     -0.76234494	    -11.59464285	    -27.29928479	     -0.47646240	      6.76929371	      5.67175891	     -5.70799322	     20.17578248	      1.47891928	     13.12917145	    -14.40018030	     -0.25133056	     -6.22071726	     -0.04586636	     -7.54379608	     -8.27677691	      2.01594089	      8.93938478	     14.82401271	    -11.15910820	     19.50128362	     20.49521719	     89.95437384	      0.00000000	      0.00000000	     -2.73188085	      6.83388905	    -14.57414440	     19.14490450	     89.95437384	      0.00000000	      0.00000000
      1.09000000	      0.13802387	     -1.02627845	     -3.16898487	     -0.40241774	      0.88885012	      1.44054553	     -8.72223895	     -1.40874782	    -11.54441962	    -28.58216479	     -0.49885288	      5.54564383	      5.31710539	     -5.46249280	     19.86069517	      1.02877284	     13.12210838	    -14.79958513	     -0.25830149	     -5.70090744	     -0.22678889	     -7.56691397	     -7.97120773	      1.66557322	      8.62676155	     14.48850980	    -10.92630295	     19.47561946	     20.11593231	     89.95437384	      0.00000000	      0.00000000	     -2.58539250	      6.88132846	    -14.79120116	     18.94067250	     89.95437384	      0.00000000	      0.00000000
      1.10000000	     -0.09038985	     -0.27537260	     -3.30315199	     -0.39301861	      0.88967200	      1.43889075	     -7.93294260	     -2.80814022	    -12.15098332	    -30.39238025	     -0.53044710	      3.91743989	      5.64145908	     -5.06962575	     19.47440911	      0.15709462	     13.42884142	    -14.87109837	     -0.25954963	     -5.23473940	     -0.24865683	     -8.06369583	     -7.43979836	      0.86204103	      8.58801688	     14.02892836	    -10.58928469	     18.77573899	     19.56258076	     89.95437384	      0.00000000	      0.00000000	     -2.37472438	      7.16414537	    -16.14815068	     18.81377612	     89.95437384	      0.00000000	      0.00000000
